<svg width="40" height="30" viewBox="0 0 40 30" fill="none" xmlns="http://www.w3.org/2000/svg">
<g clip-path="url(#clip0_2_1013)">
<path d="M2.72727 30H9.09091V14.5455L0 7.72729V27.2728C0 28.7818 1.22273 30 2.72727 30Z" fill="#4285F4"/>
<path d="M30.9091 30H37.2727C38.7818 30 40 28.7773 40 27.2728V7.72729L30.9091 14.5455" fill="#34A853"/>
<path d="M30.9091 2.7272V14.5454L40 7.7272V4.09083C40 0.718106 36.15 -1.20462 33.4545 0.818106" fill="#FBBC04"/>
<path d="M9.09094 14.5455V2.72729L20 10.9091L30.9091 2.72729V14.5455L20 22.7273" fill="#EA4335"/>
<path d="M0 4.09083V7.7272L9.09091 14.5454V2.7272L6.54545 0.818106C3.84546 -1.20462 0 0.718106 0 4.09083Z" fill="#C5221F"/>
</g>
<defs>
<clipPath id="clip0_2_1013">
<rect width="40" height="30" fill="white"/>
</clipPath>
</defs>
</svg>
