<svg width="33" height="30" viewBox="0 0 33 30" fill="none" xmlns="http://www.w3.org/2000/svg">
<g clip-path="url(#clip0_2_1041)">
<path d="M32.25 15.7499C32.2517 15.4977 32.1214 15.263 31.9065 15.1311H31.9027L31.8892 15.1236L20.7142 8.50864C20.666 8.47604 20.6159 8.44624 20.5642 8.41939C20.1327 8.19679 19.6202 8.19679 19.1887 8.41939C19.137 8.44625 19.087 8.47604 19.0387 8.50864L7.86374 15.1236L7.85025 15.1311C7.5087 15.3435 7.404 15.7926 7.61639 16.1341C7.67896 16.2348 7.76516 16.3186 7.86749 16.3784L19.0425 22.9934C19.0909 23.0257 19.141 23.0555 19.1925 23.0826C19.624 23.3052 20.1365 23.3052 20.568 23.0826C20.6195 23.0555 20.6696 23.0257 20.718 22.9934L31.893 16.3784C32.1162 16.2482 32.2525 16.0083 32.25 15.7499Z" fill="#0A2767"/>
<path d="M9.1665 11.3332H16.5V18.0555H9.1665V11.3332ZM30.75 4.5V1.42499C30.7676 0.656172 30.1591 0.0184227 29.3903 0H10.3598C9.59094 0.0184227 8.98239 0.656172 9.00001 1.42499V4.5L20.25 7.49999L30.75 4.5Z" fill="#0364B8"/>
<path d="M9 4.5H16.5V11.25H9V4.5Z" fill="#0078D4"/>
<path d="M24 4.5H16.5V11.25L24 18H30.75V11.25L24 4.5Z" fill="#28A8EA"/>
<path d="M16.5 11.25H24V18H16.5V11.25Z" fill="#0078D4"/>
<path d="M16.5 18H24V24.75H16.5V18Z" fill="#0364B8"/>
<path d="M9.1665 18.0554H16.5V24.1664H9.1665V18.0554Z" fill="#14447D"/>
<path d="M24 18H30.75V24.75H24V18Z" fill="#0078D4"/>
<path d="M31.9065 16.3373L31.8922 16.3448L20.7172 22.6297C20.6685 22.6597 20.619 22.6882 20.5672 22.7137C20.3774 22.8041 20.1713 22.8551 19.9612 22.8637L19.3507 22.5067C19.2991 22.4808 19.2491 22.4521 19.2007 22.4205L7.87574 15.957H7.8705L7.5 15.75V28.473C7.50578 29.3218 8.19839 30.0054 9.04724 30H30.7267C30.7395 30 30.7507 29.994 30.7642 29.994C30.9435 29.9825 31.1203 29.9456 31.2892 29.8845C31.3622 29.8536 31.4327 29.817 31.5 29.775C31.5502 29.7465 31.6365 29.6843 31.6365 29.6843C32.0207 29.4 32.2481 28.951 32.25 28.473V15.75C32.2497 15.9934 32.1185 16.2177 31.9065 16.3373Z" fill="url(#paint0_linear_2_1041)"/>
<path opacity="0.5" d="M31.65 15.6998V16.4798L19.965 24.525L7.8675 15.9623C7.8675 15.9582 7.86413 15.9548 7.85999 15.9548L6.75 15.2873V14.7248L7.2075 14.7173L8.17499 15.2723L8.19748 15.2798L8.27998 15.3323C8.27998 15.3323 19.65 21.8198 19.68 21.8348L20.115 22.0898C20.1525 22.0748 20.19 22.0598 20.235 22.0448C20.2575 22.0298 31.5224 15.6923 31.5224 15.6923L31.65 15.6998Z" fill="#0A2767"/>
<path d="M31.9065 16.3373L31.8922 16.3455L20.7172 22.6305C20.6685 22.6605 20.619 22.689 20.5672 22.7145C20.1332 22.9265 19.6257 22.9265 19.1917 22.7145C19.1403 22.689 19.0903 22.661 19.0417 22.6305L7.86675 16.3455L7.85325 16.3373C7.6375 16.2203 7.50224 15.9954 7.5 15.75V28.473C7.50537 29.3217 8.19774 30.0054 9.04643 30C9.04643 30 9.04647 30 9.0465 30H30.7035C31.5522 30.0054 32.2446 29.3218 32.25 28.4731C32.25 28.4731 32.25 28.473 32.25 28.473V15.75C32.2497 15.9934 32.1184 16.2177 31.9065 16.3373Z" fill="#026451"/>
<path opacity="0.1" d="M20.88 22.5376L20.7127 22.6313C20.6642 22.6622 20.6142 22.6905 20.5627 22.7161C20.3784 22.8065 20.1781 22.8596 19.9732 22.8721L24.225 27.9001L31.6417 29.6873C31.8449 29.5338 32.0066 29.332 32.112 29.1001L20.88 22.5376Z" fill="black"/>
<path opacity="0.05" d="M21.6374 22.1116L20.7127 22.6313C20.6642 22.6622 20.6142 22.6905 20.5627 22.7161C20.3784 22.8065 20.1781 22.8595 19.9732 22.8721L21.9652 28.3643L31.6439 29.6851C32.0252 29.3988 32.2497 28.9499 32.2499 28.4731V28.3088L21.6374 22.1116Z" fill="black"/>
<path d="M9.0675 30H30.7012C31.0341 30.0017 31.3588 29.8965 31.6275 29.7L19.35 22.5083C19.2984 22.4824 19.2483 22.4536 19.2 22.422L7.87499 15.9585H7.86974L7.5 15.75V28.4295C7.49916 29.296 8.20094 29.9992 9.0675 30Z" fill="#28A8EA"/>
<path opacity="0.1" d="M18 7.37474V23.3722C17.9987 23.9331 17.6576 24.4373 17.1375 24.6472C16.9764 24.7165 16.8029 24.7522 16.6275 24.7522H7.5V6.74999H9V6H16.6275C17.3852 6.00287 17.9984 6.61705 18 7.37474Z" fill="black"/>
<path opacity="0.2" d="M17.25 8.12481V24.1223C17.2519 24.3035 17.2135 24.4828 17.1375 24.6473C16.9292 25.1607 16.4315 25.4975 15.8775 25.5H7.5V6.75006H15.8775C16.0951 6.74788 16.3096 6.80216 16.5 6.90757C16.9597 7.13919 17.2498 7.61001 17.25 8.12481Z" fill="black"/>
<path opacity="0.2" d="M17.25 8.12481V22.6223C17.2463 23.3796 16.6348 23.9935 15.8775 24H7.5V6.75006H15.8775C16.0951 6.74788 16.3096 6.80216 16.5 6.90757C16.9597 7.13919 17.2498 7.61001 17.25 8.12481Z" fill="black"/>
<path opacity="0.2" d="M16.5 8.12474V22.6222C16.4992 23.3808 15.886 23.9963 15.1275 24H7.5V6.75H15.1275C15.8859 6.75041 16.5004 7.36557 16.5 8.124C16.5 8.12425 16.5 8.1245 16.5 8.12474Z" fill="black"/>
<path d="M1.37474 6.75H15.1252C15.8845 6.75 16.5 7.3655 16.5 8.12474V21.8752C16.5 22.6345 15.8845 23.25 15.1252 23.25H1.37474C0.615487 23.25 0 22.6345 0 21.8752V8.12474C0 7.3655 0.615504 6.75 1.37474 6.75Z" fill="url(#paint1_linear_2_1041)"/>
<path d="M4.29677 12.516C4.6356 11.7941 5.18251 11.19 5.86728 10.7813C6.62562 10.3471 7.48906 10.1307 8.36253 10.1558C9.17209 10.1382 9.97092 10.3434 10.6718 10.749C11.3307 11.142 11.8615 11.7178 12.1995 12.4065C12.5677 13.1654 12.7512 14.0006 12.735 14.844C12.7529 15.7254 12.5641 16.5987 12.1838 17.394C11.8377 18.1074 11.2901 18.7037 10.6088 19.1092C9.88091 19.5273 9.05241 19.7379 8.21328 19.7183C7.38643 19.7382 6.56999 19.5307 5.85303 19.1182C5.18837 18.7248 4.651 18.1483 4.30503 17.4577C3.93468 16.7098 3.74901 15.884 3.76354 15.0495C3.74811 14.1756 3.9304 13.3096 4.29677 12.516ZM5.97077 16.5885C6.15142 17.0449 6.45778 17.4407 6.85427 17.73C7.25812 18.0123 7.74171 18.1579 8.23426 18.1455C8.75881 18.1663 9.27587 18.0157 9.70727 17.7165C10.0987 17.4281 10.397 17.0312 10.5653 16.575C10.7533 16.0655 10.8461 15.5258 10.839 14.9828C10.8448 14.4345 10.7576 13.8893 10.581 13.3703C10.425 12.9016 10.1364 12.4884 9.75001 12.1808C9.32942 11.8674 8.81377 11.7085 8.28976 11.7308C7.78653 11.7177 7.29212 11.8645 6.87752 12.15C6.47431 12.4406 6.16215 12.8399 5.97752 13.3013C5.56794 14.3589 5.56581 15.5309 5.97151 16.59L5.97077 16.5885Z" fill="white"/>
<path d="M24 4.5H30.75V11.25H24V4.5Z" fill="#50D9FF"/>
</g>
<defs>
<linearGradient id="paint0_linear_2_1041" x1="19.875" y1="15.75" x2="19.875" y2="30" gradientUnits="userSpaceOnUse">
<stop stop-color="#35B8F1"/>
<stop offset="1" stop-color="#28A8EA"/>
</linearGradient>
<linearGradient id="paint1_linear_2_1041" x1="2.86638" y1="5.6758" x2="13.6336" y2="24.3242" gradientUnits="userSpaceOnUse">
<stop stop-color="#1784D9"/>
<stop offset="0.5" stop-color="#107AD5"/>
<stop offset="1" stop-color="#0A63C9"/>
</linearGradient>
<clipPath id="clip0_2_1041">
<rect width="32.25" height="30" fill="white"/>
</clipPath>
</defs>
</svg>
